<mxfile host="app.diagrams.net" modified="2024-06-01T19:04:17.834Z" agent="Mozilla/5.0 (Macintosh; Intel Mac OS X 10_15_7) AppleWebKit/537.36 (KHTML, like Gecko) Chrome/125.0.0.0 Safari/537.36" etag="glTfzGnJwJVQEHdkwSh9" version="24.4.8" type="device">
  <diagram name="Page-1" id="HXleM2z4RaeKFn6fL_KI">
    <mxGraphModel dx="1106" dy="595" grid="1" gridSize="10" guides="1" tooltips="1" connect="1" arrows="1" fold="1" page="1" pageScale="1" pageWidth="850" pageHeight="1100" math="0" shadow="0">
      <root>
        <mxCell id="0" />
        <mxCell id="1" parent="0" />
        <mxCell id="Y-808tgcbW0S1Y8Absdo-29" value="" style="rounded=0;whiteSpace=wrap;html=1;" vertex="1" parent="1">
          <mxGeometry x="240" y="280" width="240" height="280" as="geometry" />
        </mxCell>
        <mxCell id="Y-808tgcbW0S1Y8Absdo-30" value="Kubernetes" style="text;html=1;align=center;verticalAlign=middle;whiteSpace=wrap;rounded=0;" vertex="1" parent="1">
          <mxGeometry x="330" y="280" width="60" height="30" as="geometry" />
        </mxCell>
      </root>
    </mxGraphModel>
  </diagram>
</mxfile>
